<svg width="60" height="60" viewBox="0 0 60 60" fill="none" xmlns="http://www.w3.org/2000/svg">
<path d="M30 0C46.5685 0 60 13.4315 60 30C60 46.5685 46.5685 60 30 60C13.4315 60 0 46.5685 0 30C0 13.4315 13.4315 0 30 0ZM38.3232 12.9102C38.1835 12.8704 36.1175 12.3284 34.29 13.4922C31.7871 15.084 31.1082 18.9897 32.2793 21.5469L21.2764 32.375C18.6905 31.4858 15.0782 32.1764 13.5332 34.4609C12.3296 36.2418 12.8618 38.2707 12.8994 38.4082C13.4938 40.5281 15.5504 41.9328 17.459 42.1416C17.5893 42.1563 17.7149 42.1518 17.8428 42.1543C17.8428 42.2796 17.8351 42.405 17.8477 42.5303C18.0207 44.4044 19.4099 46.4477 21.5615 47.0742C21.6995 47.1135 23.7616 47.6813 25.6025 46.5391C28.1281 44.9743 28.8503 41.0684 27.7041 38.499L38.8223 27.6191C41.4155 28.4568 44.9871 27.7228 46.4971 25.4336C47.6809 23.6404 47.1245 21.6156 47.0869 21.4805C46.4673 19.3657 44.3954 17.9826 42.4844 17.7959C42.3565 17.7836 42.2285 17.7891 42.1006 17.7891C42.0981 17.6638 42.1059 17.5383 42.0908 17.4131C41.8977 15.5413 40.4827 13.512 38.3232 12.9102Z" fill="#FF9956"/>
</svg>
