<svg width="60" height="60" viewBox="0 0 60 60" fill="none" xmlns="http://www.w3.org/2000/svg">
<circle cx="30" cy="30" r="27.5" stroke="#E2A36F" stroke-width="5"/>
<path d="M32.2789 21.5473L21.2761 32.3752C18.6902 31.486 15.0786 32.1763 13.5337 34.4608C12.3298 36.2417 12.8615 38.2707 12.8991 38.4083C13.4935 40.5282 15.5501 41.9333 17.4588 42.1421C17.5892 42.1568 17.7146 42.1519 17.8425 42.1543C17.8425 42.2796 17.835 42.4049 17.8475 42.5302C18.0206 44.4044 19.4101 46.4482 21.562 47.0746C21.6999 47.1139 23.7615 47.6813 25.6025 46.5391C28.1281 44.9743 28.8504 41.0686 27.7042 38.4992L38.8225 27.6196C41.4158 28.4572 44.9873 27.7227 46.4972 25.4333C47.681 23.6401 47.1242 21.616 47.0866 21.4809C46.4671 19.3659 44.3954 17.983 42.4843 17.7963C42.3564 17.784 42.2285 17.7889 42.1005 17.7889C42.098 17.6636 42.1056 17.5383 42.0905 17.4131C41.8974 15.5413 40.4828 13.5122 38.3234 12.9104C38.1854 12.8711 36.1188 12.3282 34.2904 13.4926C31.7874 15.0844 31.1077 18.9901 32.2789 21.5473Z" fill="#E2A36F"/>
</svg>

